HIERARCHY
ROOT Hips
{
  OFFSET 0.0000 0.0000 0.0000
  CHANNELS 6 Xposition Yposition Zposition Zrotation Xrotation Yrotation
  JOINT LeftHip
  {
    OFFSET 3.4300 -0.0000 0.0000
    CHANNELS 3 Zrotation Xrotation Yrotation
    JOINT LeftKnee
    {
      OFFSET 0.0000 -18.4700 0.0000
      CHANNELS 3 Zrotation Xrotation Yrotation
      JOINT LeftAnkle
      {
        OFFSET 0.0000 -17.9500 0.0000
        CHANNELS 3 Zrotation Xrotation Yrotation
        End Site
        {
            OFFSET 0.0000 -3.1200 0.0000
        }
      }
    }
  }
  JOINT RightHip
  {
    OFFSET -3.4300 0.0000 -0.0000
    CHANNELS 3 Zrotation Xrotation Yrotation
    JOINT RightKnee
    {
      OFFSET 0.0000 -18.4700 0.0000
      CHANNELS 3 Zrotation Xrotation Yrotation
      JOINT RightAnkle
      {
        OFFSET 0.0000 -17.9500 -0.0000
        CHANNELS 3 Zrotation Xrotation Yrotation
        End Site
        {
            OFFSET 0.0000 -3.1200 0.0000
        }
      }
    }
  }
  JOINT Chest
  {
    OFFSET 0.0000 4.5700 0.0000
    CHANNELS 3 Zrotation Xrotation Yrotation
    JOINT Chest2
    {
      OFFSET -0.0000 6.5700 0.0000
      CHANNELS 3 Zrotation Xrotation Yrotation
      JOINT LeftCollar
      {
        OFFSET 1.0600 4.1900 1.7600
        CHANNELS 3 Zrotation Xrotation Yrotation
        JOINT LeftShoulder
        {
          OFFSET 5.8100 -0.0000 0.0000
          CHANNELS 3 Zrotation Xrotation Yrotation
          JOINT LeftElbow
          {
            OFFSET 0.0000 -12.0800 0.0000
            CHANNELS 3 Zrotation Xrotation Yrotation
            JOINT LeftWrist
            {
              OFFSET -0.0000 -9.8200 -0.0000
              CHANNELS 3 Zrotation Xrotation Yrotation
              End Site
              {
                  OFFSET 0.0000 -7.3700 0.0000
              }
            }
          }
        }
      }
      JOINT RightCollar
      {
        OFFSET -1.0600 4.1900 1.7600
        CHANNELS 3 Zrotation Xrotation Yrotation
        JOINT RightShoulder
        {
          OFFSET -6.0600 0.0000 -0.0000
          CHANNELS 3 Zrotation Xrotation Yrotation
          JOINT RightElbow
          {
            OFFSET 0.0000 -11.0800 0.0000
            CHANNELS 3 Zrotation Xrotation Yrotation
            JOINT RightWrist
            {
              OFFSET 0.0000 -9.8200 0.0000
              CHANNELS 3 Zrotation Xrotation Yrotation
              End Site
              {
                  OFFSET -0.0000 -7.1400 0.0000
              }
            }
          }
        }
      }
    }
    JOINT Neck
    {
      OFFSET 0.0000 10.6200 0.0000
      CHANNELS 3 Zrotation Xrotation Yrotation
      JOINT Head
      {
        OFFSET 0.0000 5.1900 0.0000
        CHANNELS 3 Zrotation Xrotation Yrotation
        End Site
        {
            OFFSET 0.0000 4.1400 0.0000
        }
      }
    }
  }
}
MOTION
Frames:	11
Frame Time:	0.033333
46.2172 41.9168 0.6811 -1.17 -5.16 -29.04 3.80 0.04 -5.14 -2.04 11.06 16.87 -2.68 -6.80 -0.23 -12.65 3.91 -11.48 0.92 2.09 -21.24 8.71 5.79 -0.41 -1.06 15.84 -7.84 0.00 0.00 0.00 1.49 0.00 3.44 8.97 -9.82 -57.62 23.76 -14.07 41.83 4.04 7.02 -0.19 4.18 -0.08 -4.19 -4.47 -6.62 12.97 -13.44 -19.62 12.77 -5.33 5.75 0.19 -5.02 7.58 3.13 13.03 -15.35 0.17 
46.2172 41.9168 0.6811 -1.17 -5.16 -29.04 3.80 0.04 -5.14 -2.04 11.06 16.87 -2.68 -6.80 -0.23 -12.65 3.91 -11.48 0.92 2.09 -21.24 8.71 5.79 -0.41 -1.06 15.84 -7.84 0.00 0.00 0.00 1.49 0.00 3.44 8.97 -9.82 -57.62 23.76 -14.07 41.83 4.04 7.02 -0.19 4.18 -0.08 -4.19 -4.47 -6.62 12.97 -13.44 -19.62 12.77 -5.33 5.75 0.19 -5.02 7.58 3.13 13.03 -15.35 0.17 
46.0860 41.9174 0.8036 -1.30 -5.23 -28.81 4.00 0.61 -5.32 -2.03 10.63 16.80 -2.75 -6.78 -0.23 -12.44 4.49 -11.49 0.92 1.83 -21.41 8.74 5.62 -0.39 -1.09 15.78 -7.99 0.00 0.00 0.00 1.55 0.01 3.43 8.97 -9.66 -57.50 24.13 -15.39 40.92 3.55 7.25 -0.17 3.94 -0.08 -4.14 -4.35 -6.81 12.85 -13.30 -19.39 13.03 -5.02 5.74 0.18 -4.63 7.38 3.01 12.71 -15.10 0.19 
45.9839 41.9177 0.9152 -1.37 -5.23 -28.73 4.11 1.05 -5.40 -2.00 10.25 16.77 -2.81 -6.76 -0.23 -12.35 4.77 -11.41 0.97 1.84 -21.55 8.79 5.39 -0.37 -1.15 15.66 -7.98 0.00 0.00 0.00 1.37 0.00 3.44 9.15 -9.38 -57.41 24.57 -16.58 39.76 3.22 7.69 -0.17 3.97 -0.08 -4.15 -4.45 -6.73 12.74 -13.46 -19.90 13.21 -4.15 5.82 0.15 -4.51 6.71 2.92 12.58 -14.42 0.10 
45.9407 41.9136 0.9571 -1.39 -5.24 -28.61 4.15 1.22 -5.53 -1.95 10.09 16.77 -2.85 -6.71 -0.23 -12.34 4.91 -11.31 1.08 1.86 -21.76 8.76 5.27 -0.35 -1.20 15.54 -7.93 0.00 0.00 0.00 1.64 0.01 3.42 8.68 -9.31 -57.76 24.36 -16.81 38.74 3.15 7.55 -0.16 3.81 -0.07 -4.12 -4.45 -6.76 12.62 -13.56 -20.44 13.51 -3.11 5.74 0.11 -4.48 6.37 2.84 12.48 -14.09 0.01 
45.9066 41.9140 0.9853 -1.40 -5.20 -28.56 4.17 1.26 -5.58 -1.90 10.04 16.76 -2.90 -6.70 -0.23 -12.31 5.01 -11.15 1.15 1.77 -21.98 8.72 5.23 -0.33 -1.31 15.40 -7.77 0.00 0.00 0.00 1.99 0.01 3.40 7.97 -9.40 -58.32 24.02 -16.52 38.10 3.11 7.36 -0.15 4.31 -0.08 -4.18 -5.14 -6.94 12.72 -13.55 -20.79 13.84 -2.36 5.85 0.09 -4.15 6.48 2.66 12.07 -14.17 -0.00 
45.8813 41.9177 1.0067 -1.39 -5.17 -28.54 4.17 1.22 -5.63 -1.83 10.15 16.77 -2.96 -6.74 -0.23 -12.25 5.05 -11.13 1.11 1.71 -22.03 8.73 5.22 -0.33 -1.44 15.30 -7.58 0.00 0.00 0.00 2.56 0.01 3.37 7.11 -9.44 -58.73 23.86 -16.05 37.86 3.06 7.24 -0.15 4.19 -0.08 -4.15 -5.24 -7.13 12.82 -13.35 -21.14 14.34 -1.81 6.16 0.07 -3.81 6.45 2.51 11.62 -14.17 0.01 
45.8659 41.9217 1.0232 -1.37 -5.15 -28.52 4.13 1.15 -5.64 -1.74 10.26 16.76 -3.00 -6.78 -0.22 -12.24 5.08 -11.17 1.10 1.68 -22.00 8.73 5.21 -0.33 -1.53 15.23 -7.44 0.00 0.00 0.00 2.62 0.01 3.37 6.80 -9.43 -59.02 23.89 -15.61 37.77 2.88 7.20 -0.14 4.10 -0.07 -4.12 -5.21 -7.33 12.81 -13.28 -21.35 15.06 -1.46 6.34 0.06 -3.84 6.74 2.48 11.47 -14.48 0.01 
45.8505 41.9279 1.0384 -1.35 -5.14 -28.52 4.08 1.09 -5.61 -1.68 10.39 16.72 -3.03 -6.82 -0.22 -12.24 5.11 -11.19 1.10 1.63 -21.99 8.71 5.23 -0.33 -1.58 15.22 -7.41 0.00 0.00 0.00 2.25 0.01 3.39 7.03 -9.25 -59.02 24.10 -15.64 37.64 2.75 7.44 -0.14 3.99 -0.07 -4.09 -5.08 -7.53 12.81 -13.40 -21.59 15.59 -1.08 6.50 0.05 -3.86 6.92 2.49 11.38 -14.65 0.04 
45.8460 41.9263 1.0503 -1.35 -5.13 -28.53 4.07 1.05 -5.62 -1.67 10.51 16.76 -3.03 -6.86 -0.22 -12.25 5.12 -11.20 1.11 1.63 -21.95 8.71 5.24 -0.33 -1.57 15.23 -7.42 0.00 0.00 0.00 2.02 0.01 3.39 7.16 -9.03 -59.15 23.85 -15.38 37.59 2.78 7.45 -0.14 3.66 -0.06 -4.03 -4.73 -7.77 12.88 -13.38 -21.44 15.97 -0.91 6.23 0.04 -4.07 6.96 2.57 11.47 -14.73 0.04 
45.8419 41.9233 1.0578 -1.35 -5.13 -28.53 4.02 1.04 -5.64 -1.58 10.55 16.78 -3.06 -6.81 -0.21 -12.25 5.11 -11.21 1.12 1.63 -21.95 8.68 5.25 -0.33 -1.56 15.24 -7.42 0.00 0.00 0.00 1.98 0.01 3.39 6.94 -8.85 -59.63 23.01 -14.20 37.55 2.78 7.15 -0.13 3.43 -0.06 -3.98 -4.48 -7.97 12.96 -13.20 -21.30 16.20 -1.03 6.02 0.04 -4.28 7.11 2.64 11.59 -14.86 0.03 
